<svg width="9" height="9" viewBox="0 0 9 9" fill="none" xmlns="http://www.w3.org/2000/svg">
<path fill-rule="evenodd" clip-rule="evenodd" d="M5.69494 3.29279C5.84119 3.43904 5.84119 3.67615 5.69494 3.82239L3.82251 5.69482C3.67627 5.84107 3.43916 5.84107 3.29291 5.69482C3.14667 5.54857 3.14667 5.31146 3.29291 5.16522L5.16534 3.29279C5.31159 3.14654 5.5487 3.14654 5.69494 3.29279Z" fill="#22D606"/>
<path fill-rule="evenodd" clip-rule="evenodd" d="M4.22908 1.4369C5.14634 0.519631 6.63352 0.519631 7.55079 1.4369C8.46805 2.35416 8.46805 3.84134 7.55079 4.7586L6.57355 5.73584C6.4273 5.88209 6.19019 5.88209 6.04395 5.73584C5.8977 5.5896 5.8977 5.35248 6.04395 5.20624L7.02118 4.229C7.64596 3.60423 7.64596 2.59127 7.02118 1.9665C6.39641 1.34173 5.38345 1.34173 4.75868 1.9665L3.78144 2.94374C3.6352 3.08998 3.39809 3.08998 3.25184 2.94374C3.1056 2.79749 3.1056 2.56038 3.25184 2.41413L4.22908 1.4369ZM2.94381 3.25176C3.09006 3.39801 3.09006 3.63512 2.94381 3.78137L1.96657 4.7586C1.3418 5.38338 1.3418 6.39634 1.96657 7.02111C2.59135 7.64588 3.60431 7.64588 4.22908 7.02111L5.20632 6.04387C5.35256 5.89762 5.58967 5.89762 5.73592 6.04387C5.88216 6.19012 5.88216 6.42723 5.73592 6.57347L4.75868 7.55071C3.84142 8.46798 2.35424 8.46798 1.43697 7.55071C0.519707 6.63345 0.519707 5.14627 1.43697 4.229L2.41421 3.25176C2.56045 3.10552 2.79757 3.10552 2.94381 3.25176Z" fill="#22D606"/>
</svg>
