<svg width="12" height="13" viewBox="0 0 12 13" fill="none" xmlns="http://www.w3.org/2000/svg">
<path d="M5.85425 8.02205L7.79132 6.02205M7.79132 6.02205L5.85425 4.02205M7.79132 6.02205H0.688721M0.688721 2.85405V2.82205C0.688721 2.07539 0.688721 1.70205 0.829481 1.41672C0.953454 1.16539 1.15039 0.962054 1.39381 0.834054C1.67017 0.688721 2.03176 0.688721 2.75493 0.688721H8.95356C9.67673 0.688721 10.0383 0.688721 10.314 0.834054C10.5575 0.962054 10.755 1.16539 10.879 1.41672C11.0198 1.70139 11.0198 2.07472 11.0198 2.82005V9.22472C11.0198 9.97005 11.0198 10.3427 10.879 10.6274C10.755 10.8784 10.5572 11.0823 10.314 11.2101C10.0383 11.3554 9.67738 11.3554 8.9555 11.3554H2.75299C2.03111 11.3554 1.66952 11.3554 1.39381 11.2101C1.15084 11.0822 0.953288 10.8783 0.829481 10.6274C0.688721 10.3421 0.688721 9.96872 0.688721 9.22205V9.18872" stroke="white" stroke-width="1.37747" stroke-linecap="round" stroke-linejoin="round"/>
</svg>
