<svg width="69" height="22" viewBox="0 0 69 22" fill="none" xmlns="http://www.w3.org/2000/svg">
<path fill-rule="evenodd" clip-rule="evenodd" d="M7.24926 17.1322C11.4495 17.1322 13.4261 15.1819 13.4261 12.4089C13.4261 10.13 12.1355 8.4268 7.63301 7.6041C3.76131 6.94436 2.93861 5.92978 2.93861 4.47362C2.93861 2.82558 4.31066 1.811 6.50804 1.811C9.33625 1.811 10.4349 3.29345 10.9843 5.84567L12.9346 5.46192C12.2749 2.36035 10.6005 0.052569 6.59215 0.052569C2.9938 0.0551975 0.933099 1.86883 0.933099 4.53145C0.933099 6.89179 2.41554 8.59503 6.91808 9.36253C10.2404 9.91188 11.4206 10.7635 11.4206 12.493C11.4206 14.2225 10.0486 15.3475 7.33074 15.3475C4.17397 15.3475 2.38926 13.5917 1.9214 10.7346L0 11.1183C0.438951 14.5774 2.66262 17.077 7.24926 17.1322ZM62.9592 17.2978C66.116 17.2978 68.0111 15.7339 68.6708 13.1238L66.9676 12.6297C66.4997 14.2777 65.4852 15.5946 62.9592 15.5946C60.2125 15.5946 58.5934 13.9755 58.3752 11.2024H68.6971C68.7234 10.682 68.7523 10.1879 68.7523 9.85668C68.7523 6.31616 66.639 3.9269 62.904 3.9269C59.169 3.9269 56.4801 6.45284 56.4801 10.6531C56.4801 14.8534 59.006 17.2978 62.9592 17.2978ZM58.4304 9.63852C58.7327 6.9759 60.3518 5.60385 62.8514 5.60385C65.4878 5.60385 66.8335 7.0863 66.9702 9.63852H58.433H58.4304ZM45.3907 0H47.2858V9.6648H47.4225L53.6282 4.06358H56.0175V4.11878L48.9627 10.406L56.5405 16.7748V16.83H54.0961L47.4251 11.1735H47.2884V16.83H45.3933V0H45.3907ZM37.1242 16.667C36.0807 19.0825 35.1187 19.44 33.61 19.44C33.0606 19.44 32.5665 19.3585 31.9908 19.2481L31.7175 21.0591C32.2379 21.1406 32.7873 21.2247 33.5837 21.2247C36.0281 21.2247 37.5658 19.9894 38.8563 16.9955L44.4024 4.06358H42.3706L40.6121 8.62131C39.9524 10.2956 38.9378 12.7664 38.1414 14.8534C37.2635 12.8479 36.1648 10.2404 35.4788 8.56611L33.6126 4.06358H31.4993L37.1268 16.6644L37.1242 16.667ZM25.701 4.06358H23.8059V16.83H25.701V9.82777C25.701 7.16515 26.91 6.12166 29.4623 6.12166H30.5058V4.06358H29.6279C27.5146 4.06358 26.224 5.16227 25.7562 7.76969H25.701V4.06358ZM14.417 5.74053H16.4751V13.0976C16.4751 15.4868 17.629 17.1322 20.1812 17.1322C21.251 17.1322 21.937 16.9666 22.8176 16.7196L22.5442 14.99C21.803 15.2108 21.2536 15.3186 20.5124 15.3186C18.9748 15.3186 18.3702 14.4959 18.3702 12.9293V5.73527H22.6809V4.06095H18.3702V0.412666H16.4751V4.06358H14.417V5.7379V5.74053Z" fill="white"/>
</svg>
