<svg width="28" height="20" viewBox="0 0 28 20" fill="none" xmlns="http://www.w3.org/2000/svg">
<path d="M10.3805 12.9489H8.46777C8.33566 12.9489 8.20897 13.0013 8.11556 13.0948C8.02215 13.1882 7.96967 13.3149 7.96967 13.447V18.926C7.96967 19.0581 7.91719 19.1848 7.82378 19.2783C7.73037 19.3717 7.60368 19.4241 7.47157 19.4241H3.48679C3.35469 19.4241 3.22799 19.3717 3.13458 19.2783C3.04117 19.1848 2.98869 19.0581 2.98869 18.926V13.447C2.98869 13.3149 2.93621 13.1882 2.8428 13.0948C2.74939 13.0013 2.6227 12.9489 2.49059 12.9489H0.57989C0.466011 12.9515 0.353993 12.9197 0.258589 12.8574C0.163186 12.7952 0.0888705 12.7055 0.0454308 12.6002C0.00138877 12.4984 -0.011 12.3857 0.00987674 12.2768C0.0307535 12.1679 0.083929 12.0678 0.162484 11.9895L5.07323 7.13806C5.18189 7.03152 5.328 6.97185 5.48018 6.97185C5.63235 6.97185 5.77846 7.03152 5.88712 7.13806L10.4602 11.6538V12.9389C10.4338 12.9438 10.4072 12.9471 10.3805 12.9489ZM16.4373 6.4736V18.926C16.4373 19.0581 16.3849 19.1848 16.2914 19.2783C16.198 19.3717 16.0713 19.4241 15.9392 19.4241H11.9545C11.8223 19.4241 11.6957 19.3717 11.6022 19.2783C11.5088 19.1848 11.4564 19.0581 11.4564 18.926V6.4736C11.4564 6.34149 11.4039 6.2148 11.3105 6.12139C11.2171 6.02798 11.0904 5.9755 10.9583 5.9755H9.04706C8.93327 5.978 8.8214 5.94604 8.7261 5.88382C8.63081 5.82159 8.55656 5.73201 8.51309 5.62683C8.46885 5.52481 8.4564 5.41181 8.47738 5.30261C8.49835 5.1934 8.55176 5.09305 8.63064 5.01467L13.5379 0.164192C13.6475 0.0588421 13.7936 0 13.9456 0C14.0976 0 14.2437 0.0588421 14.3533 0.164192L19.2586 5.01268C19.3388 5.09114 19.3933 5.19203 19.4151 5.30209C19.4369 5.41215 19.4249 5.52623 19.3806 5.62932C19.3371 5.7345 19.2629 5.82408 19.1676 5.88631C19.0723 5.94853 18.9604 5.98049 18.8466 5.97799H16.9354C16.8038 5.97799 16.6774 6.03013 16.5841 6.123C16.4908 6.21587 16.438 6.34193 16.4373 6.4736ZM27.8478 12.6002C27.8045 12.7054 27.7304 12.7951 27.6351 12.8573C27.5399 12.9196 27.428 12.9515 27.3143 12.9489H25.4031C25.271 12.9489 25.1443 13.0013 25.0509 13.0948C24.9575 13.1882 24.905 13.3149 24.905 13.447V18.926C24.905 19.0581 24.8525 19.1848 24.7591 19.2783C24.6657 19.3717 24.539 19.4241 24.4069 19.4241H20.4221C20.29 19.4241 20.1633 19.3717 20.0699 19.2783C19.9765 19.1848 19.924 19.0581 19.924 18.926V13.447C19.924 13.3149 19.8715 13.1882 19.7781 13.0948C19.6847 13.0013 19.558 12.9489 19.4259 12.9489H17.5132C17.4865 12.9471 17.4599 12.9438 17.4335 12.9389V11.6538L22.0071 7.13706C22.1156 7.03071 22.2615 6.97114 22.4135 6.97114C22.5655 6.97114 22.7114 7.03071 22.82 7.13706L27.7262 11.9841C27.8065 12.0624 27.8611 12.1632 27.8828 12.2732C27.9045 12.3833 27.8923 12.4973 27.8478 12.6002Z" fill="white"/>
</svg>
