<svg width="12" height="6" viewBox="0 0 12 6" fill="none" xmlns="http://www.w3.org/2000/svg">
<path fill-rule="evenodd" clip-rule="evenodd" d="M2.29378 4.30623C2.40934 4.56222 2.43145 4.85063 2.35625 5.12124C2.28106 5.39185 2.11333 5.62751 1.88228 5.78719C1.65122 5.94687 1.37148 6.02044 1.09177 5.9951C0.812049 5.96976 0.550081 5.84712 0.351482 5.64852C0.152883 5.44992 0.0302347 5.18795 0.00489561 4.90823C-0.0204434 4.62852 0.053132 4.34877 0.21281 4.11772C0.372487 3.88666 0.60815 3.71894 0.878759 3.64374C1.14937 3.56855 1.43778 3.59066 1.69377 3.70622L3.1062 2.29378C3.02373 2.11102 2.98837 1.9105 3.00335 1.71054C3.01834 1.51059 3.08318 1.31758 3.19197 1.14915C3.30075 0.98071 3.45001 0.842218 3.62611 0.746321C3.8022 0.650425 3.99952 0.600181 4.20003 0.600181C4.40054 0.600181 4.59786 0.650425 4.77395 0.746321C4.95004 0.842218 5.0993 0.98071 5.20809 1.14915C5.31687 1.31758 5.38172 1.51059 5.3967 1.71054C5.41168 1.9105 5.37632 2.11102 5.29385 2.29378L6.70629 3.70622C6.86148 3.63614 7.02982 3.59991 7.2001 3.59991C7.37038 3.59991 7.53871 3.63614 7.69391 3.70622L9.70636 1.69377C9.5908 1.43778 9.56869 1.14937 9.64389 0.87876C9.71908 0.60815 9.88681 0.372487 10.1179 0.21281C10.3489 0.0531321 10.6287 -0.0204434 10.9084 0.00489561C11.1881 0.0302346 11.4501 0.152883 11.6487 0.351482C11.8473 0.550081 11.9699 0.812049 11.9952 1.09177C12.0206 1.37148 11.947 1.65122 11.7873 1.88228C11.6277 2.11333 11.392 2.28106 11.1214 2.35625C10.8508 2.43145 10.5624 2.40934 10.3064 2.29378L8.29393 4.30623C8.3764 4.489 8.41176 4.68952 8.39677 4.88947C8.38179 5.08942 8.31695 5.28243 8.20816 5.45087C8.09937 5.6193 7.95012 5.75779 7.77402 5.85369C7.59793 5.94959 7.40061 5.99983 7.2001 5.99983C6.99959 5.99983 6.80227 5.94959 6.62618 5.85369C6.45008 5.75779 6.30083 5.6193 6.19204 5.45087C6.08325 5.28243 6.01841 5.08942 6.00343 4.88947C5.98844 4.68952 6.0238 4.489 6.10627 4.30623L4.69384 2.8938C4.53864 2.96387 4.37031 3.00011 4.20003 3.00011C4.02975 3.00011 3.86141 2.96387 3.70622 2.8938L2.29378 4.30623Z" fill="white"/>
</svg>
