<svg width="26" height="25" viewBox="0 0 26 25" fill="none" xmlns="http://www.w3.org/2000/svg">
<path fill-rule="evenodd" clip-rule="evenodd" d="M3.17516 22.2945H6.52906L8.85787 17.608L0.709684 1.41148L0 0H1.57707H7.19144H7.78284L8.05619 0.533575L11.0053 6.29776L9.1654 10.0643L8.83684 6.35296L6.60004 1.94768H3.15414L9.93816 15.4343L17.332 0.544089L17.6001 0H18.202H23.7139H25.2699L24.5865 1.39833L20.3074 10.1458L19.214 7.96946L22.1578 1.94768H18.8039L16.5408 6.50015L24.6943 22.7019L25.404 24.1134H23.8269H18.2099H17.6185L17.3478 23.5798L14.4118 17.7999L16.2359 14.0438L16.6013 17.8235L18.8013 22.1657H22.2498L15.4632 8.67651L8.001 23.6981L7.7329 24.2422H7.13098H1.61913H0.0630802L0.746478 22.8438L5.02559 14.0964L6.11903 16.2727L3.17516 22.2945Z" fill="#4079FF"/>
</svg>
