<svg width="22" height="11" viewBox="0 0 22 11" fill="none" xmlns="http://www.w3.org/2000/svg">
<path fill-rule="evenodd" clip-rule="evenodd" d="M4.20526 7.89475C4.41712 8.36406 4.45765 8.89281 4.3198 9.38893C4.18194 9.88505 3.87444 10.3171 3.45084 10.6098C3.02724 10.9026 2.51438 11.0375 2.00157 10.991C1.48875 10.9446 1.00848 10.7197 0.644383 10.3556C0.280285 9.99151 0.0554302 9.51123 0.00897529 8.99842C-0.0374796 8.48561 0.0974086 7.97274 0.390151 7.54914C0.682892 7.12554 1.11494 6.81804 1.61106 6.68019C2.10717 6.54234 2.63593 6.58287 3.10524 6.79472L5.6947 4.20526C5.5435 3.87019 5.47868 3.50257 5.50614 3.136C5.53361 2.76942 5.6525 2.41557 5.85194 2.10677C6.05138 1.79797 6.32502 1.54406 6.64785 1.36825C6.97069 1.19244 7.33244 1.10033 7.70004 1.10033C8.06765 1.10033 8.4294 1.19244 8.75223 1.36825C9.07507 1.54406 9.34871 1.79797 9.54815 2.10677C9.74759 2.41557 9.86648 2.76942 9.89395 3.136C9.92141 3.50257 9.85659 3.87019 9.70539 4.20526L12.2949 6.79472C12.5794 6.66626 12.888 6.59982 13.2002 6.59982C13.5124 6.59982 13.821 6.66626 14.1055 6.79472L17.795 3.10524C17.5831 2.63593 17.5426 2.10717 17.6804 1.61106C17.8183 1.11494 18.1258 0.682893 18.5494 0.390151C18.973 0.0974089 19.4859 -0.0374796 19.9987 0.00897527C20.5115 0.0554301 20.9918 0.280285 21.3559 0.644384C21.72 1.00848 21.9448 1.48876 21.9913 2.00157C22.0377 2.51438 21.9028 3.02724 21.6101 3.45084C21.3173 3.87444 20.8853 4.18194 20.3892 4.3198C19.8931 4.45765 19.3643 4.41712 18.895 4.20526L15.2055 7.89475C15.3567 8.22982 15.4215 8.59744 15.3941 8.96402C15.3666 9.3306 15.2477 9.68445 15.0483 9.99325C14.8488 10.302 14.5752 10.5559 14.2524 10.7318C13.9295 10.9076 13.5678 10.9997 13.2002 10.9997C12.8326 10.9997 12.4708 10.9076 12.148 10.7318C11.8251 10.5559 11.5515 10.302 11.3521 9.99325C11.1526 9.68445 11.0337 9.3306 11.0063 8.96402C10.9788 8.59744 11.0436 8.22982 11.1948 7.89475L8.60537 5.30529C8.32084 5.43375 8.01223 5.50019 7.70004 5.50019C7.38786 5.50019 7.07925 5.43375 6.79472 5.30529L4.20526 7.89475Z" fill="#C7C7C7"/>
</svg>
